<?xml version="1.0" encoding="utf-8"?>
<!-- Generator: Adobe Illustrator 16.0.0, SVG Export Plug-In . SVG Version: 6.00 Build 0)  -->
<!DOCTYPE svg PUBLIC "-//W3C//DTD SVG 1.1//EN" "http://www.w3.org/Graphics/SVG/1.1/DTD/svg11.dtd">
<svg version="1.1" xmlns="http://www.w3.org/2000/svg" xmlns:xlink="http://www.w3.org/1999/xlink" x="0px" y="0px" width="63px"
	 height="63px" viewBox="0 0 63 63" enable-background="new 0 0 63 63" xml:space="preserve">
	
	<g>
		<path fill="#00f" d="M41.688,9.863c-5.613,0-9.02,3.208-9.922,4.511c-0.902-1.302-4.311-4.511-9.924-4.511
			S7.811,14.674,7.811,23.897c0,9.219,13.431,20.909,23.956,27.825c10.524-6.917,23.954-18.606,23.954-27.825
			C55.721,14.674,47.302,9.863,41.688,9.863z M47.734,30.625L47.734,30.625L47.734,30.625c-0.015,0-0.027-0.005-0.045-0.005
			c-0.164-0.003-0.321-0.023-0.474-0.057c-1.353-0.281-2.485-1.536-4.271-1.536c-0.008,0-0.011,0-0.02,0h-8.767
			c-0.366,0-0.682-0.249-0.773-0.604l-0.791-3.167l-1.649,7.146c-0.078,0.347-0.38,0.6-0.738,0.618
			c-0.372,0.013-0.684-0.207-0.796-0.546l-1.636-4.914l-0.841,2.523c-0.112,0.341-0.447,0.554-0.795,0.545
			c-0.358-0.016-0.661-0.269-0.741-0.618l-1.452-6.292l-1.771,11.815c-0.052,0.338-0.313,0.607-0.647,0.666
			c-0.049,0.009-0.096,0.013-0.144,0.013c-0.286,0-0.556-0.154-0.699-0.412l-3.75-6.775h-3.539c-0.441,0-0.799-0.357-0.799-0.798
			c0-0.44,0.357-0.799,0.799-0.799h4.009c0.29,0,0.557,0.157,0.698,0.412l2.842,5.129l2.046-13.645
			c0.057-0.379,0.375-0.665,0.758-0.678c0.399-0.015,0.726,0.243,0.81,0.618l1.756,7.62l0.701-2.103
			c0.109-0.326,0.413-0.548,0.757-0.548c0.346,0,0.649,0.221,0.757,0.547l1.499,4.495l1.758-7.615
			c0.084-0.359,0.401-0.615,0.77-0.62h0.007c0.369,0,0.688,0.249,0.775,0.604l1.448,5.784h8.159c1.783,0,2.917-1.25,4.268-1.534
			c0.166-0.038,0.344-0.062,0.521-0.062c1.324,0,2.398,1.072,2.398,2.395C50.133,29.551,49.059,30.625,47.734,30.625z"/>
	</g>
	<style type="text/css">
	path {
			fill: #001d69;
		}
	</style>

</svg>
