<?xml version="1.0" encoding="utf-8"?>
<!-- Generator: Adobe Illustrator 16.0.0, SVG Export Plug-In . SVG Version: 6.00 Build 0)  -->
<!DOCTYPE svg PUBLIC "-//W3C//DTD SVG 1.1//EN" "http://www.w3.org/Graphics/SVG/1.1/DTD/svg11.dtd">
<svg version="1.1" xmlns="http://www.w3.org/2000/svg" xmlns:xlink="http://www.w3.org/1999/xlink" x="0px" y="0px" width="63px"
	 height="63px" viewBox="0 0 63 63" enable-background="new 0 0 63 63" xml:space="preserve">

<g>
	<path fill="#00f" d="M39.505,12.513c-3.181-3.762-8.85-3.199-11.184-1.083c-0.357,0.324-3.089-0.046-4.306,1.127
		c-1.216,1.175-2.759,3.292-2.759,6.865c0,3.574,1.825,5.82,1.825,5.82s-0.036-0.256-0.081-0.642
		c-0.109-1.008-0.257-2.939,0.081-3.815c0.481-0.979,3.648-1.363,5.895-5.169c1.5,2.679,9.313,4.275,10.248,5.075
		c0.76,0.65,0.738,4.235,0.869,4.953c0.028,0.167,0.067,0.179,0.124-0.037c0.308-1.145,1.906-3.413,1.954-4.682
		C42.22,19.657,42.688,16.271,39.505,12.513z"/>
	<path fill="#00f" d="M39.578,22.745c-0.093-0.298-0.208-0.531-0.354-0.655c-0.935-0.8-8.748-2.398-10.248-5.079
		c-1.458,2.472-3.299,3.5-4.548,4.185c-0.671,0.384-1.718,3.296-0.384,6.66c1.294,2.947,3.604,5.52,7.633,5.52
		c3.663,0,5.905-2.127,7.254-4.729c0,0,0-0.001,0.002-0.001c0.062-0.122,0.118-0.243,0.176-0.368
		C39.709,26.85,39.94,24.149,39.578,22.745z"/>
	<g>
		<path fill="#00f" d="M37.291,34.999l-5.531,6.249C34.307,41.242,36.884,37.819,37.291,34.999z"/>
		<path fill="#00f" d="M31.76,41.248L26.231,35C26.64,37.823,29.216,41.242,31.76,41.248z"/>
	</g>
	<path fill="#00f" d="M38.65,35.356c-0.531,3.19-3.207,6.726-6.182,7.229c-0.007,0.004-0.014,0.004-0.024,0.005
		c-0.187,4.866-2.498,7.753-6.275,7.753c-3.411,0-4.674-2.22-4.862-3.392c-0.011-0.059,0-0.116,0.008-0.174
		c-1.994-0.327-3.516-2.052-3.516-4.136c0-2.318,1.881-4.198,4.198-4.198s4.196,1.879,4.196,4.198c0,2.078-1.513,3.8-3.495,4.135
		c0.081,0.369,0.627,2.166,3.471,2.166c4.017,0,4.776-4.04,4.883-6.357c-2.976-0.502-5.648-4.036-6.18-7.226
		c-5.938,1.731-12.693,5.726-12.693,13.583c0,0.29,0,0.544,0,0.782c0,1.159,0.938,2.099,2.094,2.099h17.625h17.358
		c1.157,0,2.099-0.939,2.099-2.099c0-0.237,0-0.492,0-0.782C51.354,41.082,44.592,37.085,38.65,35.356z"/>
	<circle fill="#00f" cx="22.007" cy="42.591" r="1.4"/>
	<g>
		<circle fill="#00f" cx="22.007" cy="42.591" r="1.4"/>
		<path fill="#00f" d="M22.007,39.834c-1.547,0-2.798,1.252-2.798,2.798s1.251,2.8,2.798,2.8c1.545,0,2.798-1.254,2.798-2.8
			S23.552,39.834,22.007,39.834z M22.007,44.69c-1.156,0-2.098-0.943-2.098-2.1c0-1.156,0.941-2.098,2.098-2.098
			c1.155,0,2.099,0.942,2.099,2.098C24.105,43.748,23.162,44.69,22.007,44.69z"/>
	</g>
</g>
	<style type="text/css">
	path {
			fill: #005c9d;
		}
	</style>
</svg>
