<?xml version="1.0" encoding="utf-8"?>
<!-- Generator: Adobe Illustrator 16.0.0, SVG Export Plug-In . SVG Version: 6.00 Build 0)  -->
<!DOCTYPE svg PUBLIC "-//W3C//DTD SVG 1.1//EN" "http://www.w3.org/Graphics/SVG/1.1/DTD/svg11.dtd">
	
<svg version="1.1" xmlns="http://www.w3.org/2000/svg" xmlns:xlink="http://www.w3.org/1999/xlink" x="0px" y="0px" width="63px"
	 height="63px" viewBox="0 0 63 63" enable-background="new 0 0 63 63" xml:space="preserve">
	<g>
		<path fill="#00f" d="M21.648,24.614l-8.563-13.328C12.1,9.753,10.06,9.311,8.527,10.295
			c-1.53,0.984-1.976,3.025-0.989,4.556l6.272,9.763H21.648z"/>
		</g>
		<path fill="#00f" d="M10.357,29.56h44.516c0.909-0.002,1.645-0.739,1.645-1.647c0-0.911-0.736-1.65-1.648-1.65H10.36
		c-0.91,0-1.648,0.74-1.648,1.65C8.712,28.821,9.447,29.557,10.357,29.56z"/>
		<path fill="#00f" d="M45.751,48.518h-3.356c6.675-3.243,11.452-9.687,12.302-17.31H10.5c0.851,7.623,5.628,14.067,12.3,17.31
		h-3.423c-1.822,0-3.298,1.477-3.298,3.296h32.97C49.049,49.994,47.571,48.518,45.751,48.518z M33.438,45.172v1.697
		c0,0.456-0.363,0.824-0.822,0.824c-0.458,0-0.826-0.368-0.826-0.824v-1.697v-6.544c0,0-1.644,3.212-1.646,6.137
		c-1.478-0.612-2.475-1.836-2.475-3.666c0-0.236,0.021-0.467,0.056-0.696c0.001-0.007,0.001-0.017,0.004-0.025
		c0.048-0.322,0.126-0.633,0.231-0.93c1.045-3.292,4.655-6.59,4.655-6.59s3.611,3.298,4.658,6.59
		c0.103,0.297,0.183,0.608,0.23,0.93c0.002,0.008,0.002,0.018,0.002,0.025c0.029,0.229,0.055,0.46,0.055,0.696
		C37.561,43.549,35.775,44.917,33.438,45.172z"/>
		
		<style type="text/css">
		path {
				fill: #0087bf;
			}
		</style>
</svg>
